<svg width="26" height="25" viewBox="0 0 26 25" fill="none" xmlns="http://www.w3.org/2000/svg">
<path d="M21.2147 0.0175779C21.0634 -0.0385871 20.894 0.0368728 20.8365 0.188366L20.0129 2.3683C19.9556 2.51998 20.0322 2.68924 20.1837 2.74655C20.3373 2.80404 20.5054 2.72578 20.562 2.57576L21.3855 0.395833C21.4428 0.244149 21.3662 0.0748893 21.2147 0.0175779Z" fill="#494949"/>
<path d="M21.8754 3.73328L23.8883 1.92377C24.0089 1.81545 24.0186 1.62996 23.9103 1.50941C23.8016 1.38868 23.6163 1.37893 23.4959 1.48744L21.483 3.29695C21.3624 3.40527 21.3527 3.59077 21.461 3.71131C21.5688 3.83122 21.7541 3.84219 21.8754 3.73328Z" fill="#494949"/>
<path d="M23.0131 4.76505C23.0322 4.9131 23.1585 5.02123 23.3039 5.02123C23.3163 5.02123 23.3289 5.02047 23.3415 5.01894C24.0919 4.92284 24.8366 4.67526 25.4949 4.30312C25.6359 4.22346 25.6857 4.04445 25.6059 3.90328C25.526 3.76172 25.3468 3.71224 25.206 3.79228C24.6133 4.12736 23.9427 4.35011 23.267 4.43665C23.1062 4.45729 22.9927 4.60439 23.0131 4.76505Z" fill="#494949"/>
<path d="M13.6523 11.3908C15.466 10.9621 16.5889 9.14431 16.1602 7.33074C15.7315 5.51717 13.9136 4.39455 12.0998 4.8233C10.286 5.25204 9.1632 7.0698 9.5919 8.88337C10.0206 10.6969 11.8385 11.8196 13.6523 11.3908Z" fill="#494949"/>
<path d="M8.87359 24.0599C9.623 24.3482 10.5156 24.4716 11.287 24.6057C15.6113 25.3574 19.8707 24.6655 21.1193 24.0517C21.5503 23.8399 21.4206 23.1818 20.9413 23.1531C19.9689 23.0948 18.9908 23.1463 18.0285 23.2981C21.9067 21.3952 24.5031 17.3894 24.7251 13.3451V13.3453C25.1662 5.38628 17.7583 -0.0798926 10.6213 1.23181C0.708523 2.05668 -1.74405 13.7703 1.89909 19.134C3.36104 21.2863 6.06308 23.3554 8.87359 24.0599ZM19.7474 21.5243C15.2075 25.0975 9.24942 24.193 5.57492 21.0281C5.20734 16.8708 8.50479 13.2664 12.691 13.2664C17.1242 13.2664 20.4428 17.272 19.7474 21.5243ZM4.05956 5.96207C10.5685 -2.65875 24.7375 2.51631 24.139 13.3128C24.1267 13.3578 24.0892 17.5886 20.3976 20.9704C20.7213 16.4314 17.1194 12.6795 12.691 12.6795C8.43422 12.6795 4.93668 16.1486 4.96192 20.4585C1.08432 16.5847 0.926335 10.1124 4.05956 5.96207Z" fill="#494949"/>
</svg>
