<svg width="29" height="25" viewBox="0 0 29 25" fill="none" xmlns="http://www.w3.org/2000/svg">
<path d="M2.24433 13.7304C2.36711 13.7659 2.4886 13.8073 2.61174 13.8361C2.77423 13.8783 2.9363 13.9137 3.09811 13.9463C3.31364 15.4242 4.83656 21.5571 5.74044 22.7465C5.94087 23.0109 6.19082 23.2644 6.49265 23.4402C7.09284 23.8025 7.78452 23.9173 8.427 23.9443C17.7497 24.3488 18.0713 24.3498 18.6592 24.287C19.0926 24.2347 19.5229 24.1575 19.9213 23.983C20.3166 23.8159 20.6884 23.5892 20.9759 23.3045C21.2663 23.0256 21.5075 22.7227 21.693 22.4183C22.8565 20.6176 24.1108 16.4141 24.6103 14.72C24.7407 14.2717 24.8289 13.9438 24.8875 13.6983C24.9217 13.6953 24.9575 13.6924 24.9913 13.6895C27.8555 13.4312 28.4117 12.0675 27.8927 10.6958C27.6036 9.95914 27.0853 9.54152 26.6374 9.39757C26.4123 9.31672 26.2213 9.30954 26.0695 9.30545C25.9162 9.30351 25.7953 9.31525 25.698 9.32819C25.3112 9.38746 25.2922 9.45637 25.2951 9.51385C25.2981 9.57673 25.3342 9.62263 25.6989 9.66843C25.7894 9.68153 25.9003 9.69552 26.0306 9.72025C26.1603 9.7463 26.3124 9.77627 26.4585 9.85235C26.6096 9.92032 26.7718 10.0366 26.9237 10.211C27.0748 10.3842 27.2212 10.6154 27.3105 10.9035C27.8147 12.4088 26.4941 12.8203 24.9294 12.9234C22.443 13.0909 5.52105 13.3181 5.49945 13.3179C4.61515 13.3099 3.7037 13.2496 2.82045 13.0277C1.82352 12.8075 1.11296 12.159 0.873439 11.529C0.234235 9.82078 3.54518 10.0198 5.24691 10.1299C7.33825 10.2728 6.82847 10.2307 8.31866 10.2157C9.32312 10.1969 10.3142 10.1784 11.2823 10.1603C15.1549 10.0851 18.6615 10.0058 21.1998 9.93012C21.8343 9.90942 22.4084 9.89066 22.9126 9.8742C23.4271 9.86524 23.8621 9.77852 24.2107 9.72261C24.9097 9.5979 25.2964 9.54382 25.2951 9.51385C25.2939 9.48456 24.9209 9.48036 24.2596 9.54152C24.3556 9.47099 24.4239 9.37384 23.9444 8.59548C23.7023 8.20615 23.3222 7.6451 22.7176 6.84464C21.9872 5.88447 19.2085 2.36383 18.0411 1.93537C17.4055 1.70172 16.6414 1.8834 16.258 2.44596C16.1216 2.64744 16.0527 2.88644 16.0402 3.10568C15.958 4.69584 18.1219 7.68068 18.9354 8.77595C19.1968 9.12043 19.4058 9.3937 19.5549 9.57416C17.2339 9.55545 14.3729 9.54534 11.2766 9.5422C10.4051 9.54194 9.51328 9.54162 8.61158 9.54136C8.70495 9.46297 8.80955 9.37232 8.92949 9.265C9.36934 8.86954 10.0008 8.26421 10.8991 7.33316C11.6412 6.56307 13.8462 4.24253 14.3865 3.26744C14.5486 2.96546 14.7014 2.60458 14.7505 2.17138C14.8228 1.30802 14.4461 0.667161 13.8189 0.331144C13.0189 -0.09038 12.3423 0.222138 11.7001 0.858499C10.4403 2.05186 9.3352 3.50392 8.37562 4.83457C7.41911 6.17088 6.56915 7.37592 5.90802 8.21668C5.49044 8.75515 5.16328 9.15234 4.99183 9.3829C4.58224 9.34994 4.17019 9.31986 3.75298 9.30509C2.34321 9.25945 0.333079 9.39223 0.0359541 10.8453C-0.0408121 11.1847 0.0141557 11.5226 0.117829 11.8078C0.464593 12.7237 1.38911 13.4786 2.24433 13.7304V13.7304ZM24.3486 13.7435C24.2578 13.9478 24.1517 14.2011 24.025 14.5216C23.2073 16.5667 21.7385 21.4004 20.3822 22.6691C19.201 23.7989 18.2663 23.4316 8.45053 23.2198C7.86213 23.2116 7.29429 23.1184 6.83865 22.8612C5.40957 22.0543 4.67683 18.0911 3.2288 13.9717C4.0012 14.116 4.76242 14.1625 5.48976 14.1742C5.51151 14.1745 20.4176 14.0604 24.3486 13.7435V13.7435ZM19.2193 8.58836C19.0471 8.28328 16.6555 4.40407 16.8064 3.16762C16.8324 2.94209 16.9402 2.80978 17.13 2.72138C17.3222 2.63775 17.5537 2.63675 17.7507 2.71802C18.7399 3.1113 22.3956 7.78716 23.449 8.96506C23.7885 9.34795 23.9711 9.50546 24.0834 9.55724C23.7492 9.58679 23.3597 9.63122 22.9103 9.6143C21.2797 9.59109 21.1279 9.58728 19.7391 9.57568C19.6473 9.36409 19.47 9.02286 19.2193 8.58836ZM6.16643 8.43802C6.91512 7.65605 7.85337 6.4902 8.86792 5.20829C9.88634 3.9302 11.016 2.55511 12.2496 1.44732C13.4436 0.296113 14.3288 1.54089 13.6181 2.85065C13.2429 3.53122 12.7762 4.02505 10.3098 6.78422C9.44967 7.73921 8.86789 8.38515 8.48673 8.83375C8.20469 9.16408 8.03271 9.38673 7.93169 9.5411C6.79669 9.54519 6.79442 9.53249 5.30275 9.40727C5.26028 9.40365 5.2172 9.40077 5.17465 9.39721C5.40595 9.20212 5.74904 8.87986 6.16643 8.43802V8.43802Z" fill="black"/>
</svg>
