<svg width="27" height="27" viewBox="0 0 27 27" fill="none" xmlns="http://www.w3.org/2000/svg">
<path d="M12.0822 2.33491C10.7757 2.26215 9.22993 2.37883 8.10302 2.72746C4.51287 3.83786 1.13389 7.318 0.238787 11.457C-0.821432 16.3595 1.73146 21.8795 6.25757 24.0414C9.56817 25.6226 12.2855 25.6017 15.8966 24.9537C17.2865 24.7042 19.4066 24.1881 20.7699 23.2444C21.2888 22.8852 20.9357 22.0721 20.3169 22.1956C19.6674 22.3253 19.0058 22.4852 18.3382 22.6552C21.4268 20.6398 23.4936 17.0725 23.5059 13.3541C23.5271 6.84799 17.9596 2.20146 12.0822 2.33491ZM22.8842 13.3517C22.8696 17.7373 19.8322 21.9063 15.6619 23.2644C11.4919 24.6221 6.58209 23.041 3.98814 19.5047C1.39419 15.9679 1.36059 10.81 3.90839 7.24006C7.00143 2.90633 13.3452 1.44098 18.3041 4.80236C21.2261 6.78345 22.8955 9.89959 22.8842 13.3517Z" fill="#494949"/>
<path d="M12.3729 10.3149C11.6913 9.27541 10.2697 8.77289 9.07523 9.09887C6.7273 9.74363 5.6616 12.8081 6.81564 14.8248C7.47592 15.9773 8.70382 16.5702 9.88806 17.1082C12.3408 18.2234 11.9657 18.4983 12.3209 18.4983C12.3839 18.4983 12.4468 18.4793 12.501 18.4408C14.7056 16.8724 17.7814 15.4042 18.7214 13.635C19.3628 12.4283 19.2399 10.8852 18.4158 9.79512C16.8365 7.70758 13.5495 7.97599 12.3729 10.3149ZM18.1725 13.3436C17.3599 14.8722 14.4727 16.3165 12.343 17.7919C10.8022 16.5029 8.32524 16.2094 7.35523 14.5155C6.2347 12.5583 7.67801 9.62147 9.83018 9.62147C10.8364 9.62147 11.8655 10.2542 12.0999 11.2204C12.1802 11.5504 12.6353 11.5256 12.7053 11.2156C12.9461 10.1485 13.8215 9.30329 14.9355 9.06325C16.024 8.82927 17.2495 9.28386 17.9199 10.17C18.5902 11.0569 18.6941 12.362 18.1725 13.3436Z" fill="#494949"/>
<path d="M20.6518 4.10609L21.7538 1.42956C21.8192 1.27088 21.7435 1.08912 21.5848 1.02395C21.4247 0.957563 21.2442 1.03407 21.179 1.19316L20.077 3.86888C20.0116 4.02796 20.0873 4.20972 20.246 4.27489C20.3996 4.33925 20.585 4.26805 20.6518 4.10609Z" fill="#494949"/>
<path d="M22.429 5.76252C23.2435 4.95778 24.1292 4.21538 25.0616 3.55556C25.2019 3.45638 25.2351 3.26248 25.1359 3.12202C25.0367 2.98196 24.8424 2.94917 24.7026 3.04794C23.7424 3.72719 22.8306 4.49186 21.9918 5.32048C21.794 5.51604 21.9345 5.85239 22.2104 5.85239C22.2894 5.85239 22.3683 5.82243 22.429 5.76252Z" fill="#494949"/>
<path d="M26.5293 7.85331C26.6961 7.85331 26.8341 7.72094 26.8398 7.55295C26.8456 7.38132 26.711 7.23761 26.5394 7.23154L23.7489 7.13803C23.5809 7.13844 23.4336 7.26676 23.4279 7.43839C23.422 7.61003 23.5566 7.75373 23.7283 7.7598L26.5188 7.85331H26.5293Z" fill="#494949"/>
</svg>
