<svg width="28" height="28" viewBox="0 0 28 28" fill="none" xmlns="http://www.w3.org/2000/svg">
<path d="M26.259 5.32327C26.2035 4.44864 25.4836 3.77142 24.615 3.77142C23.6416 3.77142 29.8257 3.69875 3.6794 4.06283C2.81713 4.07445 2.10507 4.75766 2.05862 5.61843C2.04228 5.92361 2.02252 6.23207 2.00038 6.53838C1.96131 6.69439 1.96639 6.85742 2.00447 7.01746C2.00494 7.00659 2.00738 6.99564 2.00808 6.98468C2.01357 7.02338 2.08715 7.36535 2.00447 7.01746C1.97362 7.76061 2.52948 8.47585 3.21938 8.81053C3.98596 9.1823 4.87171 9.19606 5.72451 9.20243C11.0339 9.24213 15.8328 9.21301 21.1421 9.25271C21.9168 9.25852 23.2236 9.17583 23.9776 8.99876C24.7316 8.82177 25.4525 8.59834 25.9035 7.97149C26.1924 7.56995 26.3391 7.05707 26.2981 6.57003C26.3185 6.28475 26.2859 5.74759 26.259 5.32327ZM24.6685 7.528C21.8319 7.54635 18.9432 7.6179 16.15 7.68682C12.0376 7.78833 7.78508 7.89396 3.61684 7.8314C3.0016 7.82203 2.52222 7.29267 2.56842 6.67285C2.59351 6.33274 2.61524 5.98851 2.63322 5.64915C2.66356 5.08991 3.12653 4.64567 3.68726 4.63818C30.3523 4.26677 23.4524 4.34676 24.615 4.34676C25.1802 4.34676 25.6488 4.78875 25.6851 5.3596C25.7072 5.71245 25.7256 6.06904 25.7346 6.42226C25.7506 7.01912 25.2797 7.52406 24.6685 7.528Z" fill="#494949"/>
<path d="M25.9597 20.0499C25.9043 19.1753 25.1844 18.4981 24.3157 18.4981C24.3082 18.4981 24.3004 18.4981 24.2925 18.4981L3.38054 18.7895C2.5179 18.8011 1.80584 19.4847 1.75977 20.3447C1.70604 21.3273 1.59654 21.7048 1.89225 22.2601C1.98285 22.9052 2.48417 23.4969 3.09247 23.792C4.35048 24.4022 4.95165 24.1141 21.0152 24.2342C21.79 24.24 23.0967 24.1573 23.8507 23.9802C24.6047 23.8032 25.2163 23.6069 25.6673 22.9801C25.9541 22.5814 26.0328 21.9117 26.0018 21.2563C26.0037 21.2153 26.0118 21.1754 26.0107 21.1339C26.0009 20.7732 25.9826 20.4099 25.9597 20.0499ZM24.3697 22.2547C17.395 22.2998 10.2653 22.663 3.31761 22.5581C2.70714 22.5488 2.22272 22.023 2.26919 21.3995C2.29428 21.0594 2.31601 20.7155 2.33436 20.3758C2.36433 19.8166 2.8273 19.3723 3.38841 19.3648L24.3008 19.0734C24.9059 19.0734 25.3508 19.535 25.3859 20.0863C25.408 20.4391 25.4263 20.7957 25.4353 21.1489C25.4516 21.7543 24.9729 22.2508 24.3697 22.2547V22.2547Z" fill="#494949"/>
<path d="M26.0935 13.6351C26.0965 13.3323 26.0642 12.7749 26.0462 12.4959C25.9928 11.6539 25.3125 10.9441 24.3793 10.9441L3.467 11.2355C2.60473 11.2471 1.89267 11.9303 1.84623 12.7911C1.80012 13.6517 1.74698 14.0018 1.81371 14.2339V14.2338C1.81378 14.2342 1.81397 14.2347 1.81404 14.2352C1.81392 14.2347 1.81385 14.2343 1.81371 14.2339C1.66746 15.0427 2.25926 15.8536 3.00775 16.2166C4.26577 16.8268 4.86683 16.5389 20.9305 16.6587C21.7052 16.6646 23.012 16.582 23.766 16.4049C24.52 16.2278 25.2409 16.0044 25.6918 15.3776C25.9997 14.9498 26.1558 14.246 26.0935 13.6351V13.6351ZM24.4561 14.7007C17.4813 14.7458 10.3504 15.1095 3.40407 15.0041C2.79333 14.9948 2.30955 14.469 2.35602 13.8455C2.38111 13.5054 2.40284 13.1612 2.42082 12.8218C2.45116 12.2626 2.91413 11.8183 3.47486 11.8109C30.1399 11.4394 23.24 11.5194 24.4026 11.5194C24.9674 11.5194 25.436 11.9614 25.4723 12.5327C25.4948 12.8855 25.5128 13.2417 25.5222 13.5949C25.5382 14.1918 25.0673 14.6967 24.4561 14.7007Z" fill="#494949"/>
</svg>
