<svg width="17" height="21" viewBox="0 0 17 21" fill="none" xmlns="http://www.w3.org/2000/svg">
<path d="M16.0035 17.4767C16.0148 16.4838 15.034 15.1324 14.4276 14.3021C13.5699 13.127 12.356 12.963 11.5229 13.4904C10.7601 13.973 10.3953 14.7179 10.1147 15.4505C10.0716 15.5626 9.93962 15.6174 9.82433 15.5555C5.74296 13.3573 4.14418 8.79042 4.73621 8.0413C5.1619 7.50264 6.2759 7.67882 6.79642 7.2311C7.12599 6.94768 7.31991 6.52974 7.36382 6.09815C7.40293 5.94324 7.42036 5.76626 7.41551 5.56543C7.42721 5.58205 7.4366 5.60019 7.44854 5.61664L7.41527 5.55596C7.39664 4.8857 7.15676 4.19091 6.8582 3.5905C6.29937 2.46484 5.80231 1.42927 4.67531 0.864046C3.85997 0.457056 2.68697 1.42917 1.96972 1.99001C1.48907 2.35698 0.887221 2.95448 0.598607 3.77511C-0.229854 5.488 0.137549 7.37478 0.687942 9.20089C2.19632 14.2054 6.3307 20.067 11.5909 20.3072C13.6223 20.7599 15.9852 19.0855 16.0035 17.4767ZM4.45442 1.30518C5.4562 1.80742 5.90842 2.78632 6.41674 3.81011C6.62945 4.23808 6.77216 4.63235 6.85291 5.01602C7.10333 6.20571 6.69324 6.48455 5.93698 6.8313C4.97357 4.95814 3.87187 3.19094 2.87672 1.91649C3.25477 1.64007 4.04113 1.09648 4.45442 1.30518ZM12.4087 19.8876C11.9777 19.9165 11.5221 19.8202 11.0575 19.6102C7.37993 17.9509 4.34188 14.8739 2.72245 11.1672C2.10087 9.74461 1.67499 8.21636 1.26306 6.73851C1.03752 5.92879 0.781792 5.01088 0.99289 4.16231C1.19725 3.33975 1.79956 2.74033 2.26895 2.38235C2.556 2.15889 2.46134 2.23264 2.48418 2.21475C3.45174 3.45285 4.52459 5.17173 5.46867 6.99994C5.13994 7.08863 4.80405 7.12571 4.50241 7.14594C4.08951 7.17365 3.79298 7.54991 3.86013 7.95887C4.40947 11.305 6.60521 14.382 9.59044 15.9896C9.9664 16.1926 10.4261 16.0166 10.5751 15.6271C10.7226 15.2418 10.8963 14.8557 11.1437 14.5193C12.9188 16.4225 14.14 18.9244 14.3237 19.2257C13.736 19.6183 13.0775 19.8479 12.4087 19.8876ZM11.4748 14.1504C11.5704 14.063 11.6717 13.9798 11.7865 13.9072C12.4001 13.5183 13.3301 13.635 14.0293 14.593C14.5338 15.2839 15.5199 16.6316 15.5103 17.471C15.5045 17.9885 15.1302 18.5377 14.7149 18.9202C13.6279 16.8751 12.5666 15.3136 11.4748 14.1504Z" fill="#494949"/>
</svg>
