<svg width="23" height="25" viewBox="0 0 23 25" fill="none" xmlns="http://www.w3.org/2000/svg">
<path d="M6.91786 1.14268C4.45233 1.77948 2.2496 3.60816 1.06957 5.8662C-0.282241 8.45299 -0.357679 11.6829 0.871863 14.3312C3.14135 19.2196 9.14124 21.337 14.2463 18.5743C15.414 20.4901 16.873 22.3015 18.3119 23.8911C19.0223 24.676 20.3061 25.2013 21.3298 24.7907C22.2032 24.5983 22.8263 23.8403 22.8263 22.9342C22.8263 22.4757 22.6631 22.033 22.3671 21.687C20.6658 19.7029 19.0516 17.6971 17.5527 15.716C18.2812 14.7292 18.8125 13.6084 19.0687 12.4048C21.4422 5.21586 14.1346 -1.67404 6.91786 1.14268ZM21.9285 22.0631C22.7046 22.9692 21.9868 24.3615 20.8038 24.256C20.4164 24.2221 20.0651 24.0209 19.8409 23.7046C18.4662 21.7553 16.9777 19.7842 15.4178 17.8329C16.0709 17.3553 16.6672 16.8021 17.1845 16.1858C18.6649 18.1369 20.2543 20.1106 21.9285 22.0631ZM18.8231 11.0009C18.2472 14.5505 15.2532 17.5446 11.704 18.1208C8.01793 18.7201 4.00241 16.653 2.45763 13.1058C0.447695 8.21231 2.91337 2.51463 8.43195 1.27969C14.168 -0.00382668 19.8029 4.95892 18.8231 11.0009Z" fill="#494949"/>
</svg>
